<?xml version="1.0" encoding="utf-8"?>
<!-- Generator: Adobe Illustrator 24.1.2, SVG Export Plug-In . SVG Version: 6.00 Build 0)  -->
<svg version="1.1" id="Layer_1" xmlns="http://www.w3.org/2000/svg" xmlns:xlink="http://www.w3.org/1999/xlink" x="0px" y="0px"
	 viewBox="0 0 180 96.5" style="enable-background:new 0 0 180 96.5;" xml:space="preserve">
<style type="text/css">
	.st0{fill-rule:evenodd;clip-rule:evenodd;fill:#FFFFFF;}
	.st1{fill:#FFFFFF;}
</style>
<path class="st0" d="M173.1,89.7c0,0.3,0.1,0.6,0.3,0.8c0.2,0.2,0.4,0.3,0.8,0.3c0.3,0,0.5-0.1,0.7-0.2c0.2-0.2,0.3-0.4,0.3-0.7
	c0-0.2-0.1-0.4-0.2-0.6c-0.1-0.1-0.3-0.2-0.5-0.3l-1.4-0.5c-0.5-0.2-0.9-0.5-1.2-0.8s-0.4-0.8-0.4-1.3c0-0.3,0.1-0.6,0.2-0.9
	c0.1-0.3,0.3-0.5,0.5-0.7s0.5-0.4,0.9-0.5c0.3-0.1,0.8-0.2,1.3-0.2c0.9,0,1.5,0.2,2,0.6c0.4,0.4,0.6,0.9,0.6,1.6v0.3h-1.7
	c0-0.4-0.1-0.7-0.2-0.9c-0.1-0.2-0.4-0.3-0.7-0.3c-0.2,0-0.5,0.1-0.6,0.2c-0.2,0.1-0.3,0.3-0.3,0.6c0,0.2,0.1,0.4,0.2,0.5
	c0.1,0.1,0.3,0.3,0.7,0.4l1.2,0.4c0.6,0.2,1,0.5,1.3,0.8s0.4,0.8,0.4,1.4c0,0.4-0.1,0.8-0.2,1c-0.1,0.3-0.3,0.5-0.6,0.7
	c-0.2,0.2-0.5,0.3-0.9,0.4c-0.3,0.1-0.7,0.1-1.1,0.1c-0.5,0-1-0.1-1.4-0.2s-0.7-0.3-0.9-0.5s-0.4-0.5-0.4-0.8
	c-0.1-0.3-0.1-0.6-0.1-1v-0.3h1.7v0.6"/>
<path class="st1" d="M170.8,84.2c-0.1,0-0.1,0-0.2,0c-0.4,0-0.7,0.1-1,0.3c-0.3,0.2-0.5,0.5-0.7,0.9l0,0v-1H167V92h1.9v-4.5
	c0-0.3,0-0.5,0.1-0.6c0.1-0.2,0.2-0.3,0.3-0.4s0.3-0.2,0.5-0.2s0.3-0.1,0.5-0.1c0.1,0,0.2,0,0.3,0s0.2,0,0.3,0v-1.9
	C170.9,84.2,170.9,84.2,170.8,84.2z"/>
<path class="st1" d="M166,88.4V88c0-0.6,0-1.1-0.1-1.6s-0.2-0.9-0.4-1.2c-0.2-0.3-0.5-0.6-0.8-0.8c-0.4-0.2-0.8-0.3-1.4-0.3
	c-0.7,0-1.2,0.1-1.6,0.3c-0.4,0.2-0.7,0.5-0.9,0.9s-0.3,0.8-0.4,1.3c-0.1,0.5-0.1,1-0.1,1.5s0,1,0.1,1.4c0,0.5,0.2,0.9,0.3,1.3
	c0.2,0.4,0.5,0.7,0.9,0.9c0.4,0.2,0.9,0.4,1.6,0.4c0.9,0,1.6-0.2,2-0.7s0.7-1.1,0.7-2h-1.7c-0.1,0.5-0.2,0.8-0.3,1.1
	c-0.1,0.2-0.4,0.4-0.7,0.4c-0.2,0-0.3,0-0.4-0.1c-0.1-0.1-0.2-0.2-0.3-0.4c-0.1-0.2-0.1-0.4-0.2-0.6c0-0.2-0.1-0.4-0.1-0.7v-0.6h3.8
	V88.4z M162.2,87c0-0.2,0-0.4,0.1-0.5c0-0.2,0.1-0.3,0.2-0.5c0.1-0.1,0.2-0.3,0.3-0.3c0.1-0.1,0.3-0.1,0.5-0.1s0.4,0,0.5,0.1
	s0.2,0.2,0.3,0.4c0.1,0.2,0.1,0.3,0.1,0.6c0,0.2,0,0.5,0.1,0.8h-2V87H162.2z"/>
<path class="st1" d="M159.5,88.4V88c0-0.6,0-1.1-0.1-1.6s-0.2-0.9-0.4-1.2c-0.2-0.3-0.5-0.6-0.9-0.8c-0.4-0.2-0.8-0.3-1.4-0.3
	c-0.7,0-1.2,0.1-1.6,0.3c-0.4,0.2-0.7,0.5-0.9,0.9s-0.4,0.8-0.4,1.3c-0.1,0.5-0.1,1-0.1,1.5s0,1,0.1,1.4c0,0.5,0.2,0.9,0.3,1.3
	c0.2,0.4,0.5,0.7,0.9,0.9c0.4,0.2,0.9,0.4,1.6,0.4c0.9,0,1.6-0.2,2-0.7s0.7-1.1,0.7-2h-1.7c-0.1,0.5-0.2,0.8-0.3,1.1
	c-0.1,0.2-0.4,0.4-0.7,0.4c-0.2,0-0.3,0-0.5-0.1c-0.1-0.1-0.2-0.2-0.3-0.4c-0.1-0.2-0.1-0.4-0.2-0.6c0-0.2,0-0.4,0-0.7v-0.6h3.9
	V88.4z M155.7,87c0-0.2,0-0.4,0-0.5c0-0.2,0.1-0.3,0.2-0.5c0.1-0.1,0.2-0.3,0.3-0.3c0.1-0.1,0.3-0.1,0.5-0.1s0.4,0,0.5,0.1
	s0.2,0.2,0.3,0.4c0.1,0.2,0.1,0.3,0.1,0.6c0,0.2,0,0.5,0.1,0.8h-2L155.7,87L155.7,87z"/>
<polygon class="st1" points="124.9,90.3 124.9,87.6 128.3,87.6 128.3,85.9 124.9,85.9 124.9,83.5 128.5,83.5 128.5,81.9 122.9,81.9 
	122.9,91.9 128.6,91.9 128.6,90.3 "/>
<path class="st1" d="M134.8,84.7c-0.3-0.3-0.8-0.5-1.4-0.5c-0.4,0-0.8,0.1-1.1,0.3c-0.3,0.2-0.6,0.4-0.8,0.8l0,0v-0.9h-1.9V92h1.9
	v-5c0-0.8,0.3-1.3,1-1.3c0.3,0,0.5,0.1,0.6,0.2c0.1,0.2,0.2,0.4,0.2,0.8v5.2h1.9v-5.6C135.3,85.5,135.1,85,134.8,84.7z"/>
<path class="st1" d="M142.3,91.5v-7.2h-1.9v0.8l0,0c-0.2-0.4-0.4-0.7-0.7-0.8c-0.3-0.1-0.6-0.2-0.8-0.2c-0.5,0-0.9,0.1-1.3,0.4
	c-0.3,0.2-0.6,0.5-0.7,0.9c-0.2,0.4-0.3,0.8-0.3,1.2c-0.1,0.5-0.1,0.9-0.1,1.4c0,1.4,0.2,2.4,0.6,2.9c0.4,0.6,1,0.9,1.7,0.9
	c0.3,0,0.6-0.1,0.9-0.3c0.3-0.2,0.5-0.4,0.7-0.7l0,0v1c0,0.4-0.1,0.7-0.2,0.9c-0.2,0.3-0.4,0.4-0.8,0.4c-0.1,0-0.2,0-0.3-0.1
	c-0.1,0-0.2-0.1-0.3-0.2c-0.2-0.1-0.3-0.3-0.3-0.6h-1.9c0,0.6,0.2,1.1,0.7,1.5c0.4,0.4,1.1,0.5,1.9,0.5c1.1,0,1.9-0.2,2.4-0.7
	C142,93.2,142.3,92.5,142.3,91.5z M140.4,89.1c0,0.3-0.1,0.5-0.2,0.7c-0.1,0.2-0.2,0.3-0.3,0.4s-0.3,0.2-0.5,0.2s-0.4-0.1-0.5-0.2
	s-0.2-0.3-0.3-0.4c-0.1-0.2-0.1-0.4-0.1-0.6s0-0.5,0-0.7c0-0.5,0-0.9,0-1.3s0.1-0.6,0.1-0.8c0.1-0.2,0.2-0.4,0.3-0.5
	s0.3-0.1,0.5-0.1c0.4,0,0.7,0.2,0.8,0.6s0.2,1,0.2,2C140.4,88.5,140.4,88.8,140.4,89.1z"/>
<rect x="143.7" y="84.4" class="st1" width="1.9" height="7.6"/>
<rect x="143.7" y="81.8" class="st1" width="1.9" height="1.7"/>
<path class="st1" d="M152.2,84.7c-0.3-0.3-0.8-0.5-1.4-0.5c-0.4,0-0.8,0.1-1.1,0.3c-0.3,0.2-0.6,0.4-0.8,0.8l0,0v-0.9H147V92h1.9v-5
	c0-0.8,0.3-1.3,1-1.3c0.3,0,0.5,0.1,0.6,0.2c0.1,0.2,0.2,0.4,0.2,0.8v5.2h1.9v-5.6C152.7,85.5,152.6,85,152.2,84.7z"/>
<path class="st1" d="M75.3,88.4V88c0-0.6,0-1.1-0.1-1.6s-0.2-0.9-0.4-1.2c-0.2-0.3-0.5-0.6-0.8-0.8c-0.4-0.2-0.8-0.3-1.4-0.3
	c-0.7,0-1.2,0.1-1.6,0.3c-0.4,0.2-0.7,0.5-0.9,0.9c-0.2,0.4-0.3,0.8-0.4,1.3s-0.1,1-0.1,1.5s0,1,0.1,1.4c0,0.5,0.2,0.9,0.3,1.3
	c0.2,0.4,0.5,0.7,0.9,0.9c0.4,0.2,0.9,0.4,1.6,0.4c0.9,0,1.6-0.2,2-0.7s0.7-1.1,0.7-2h-1.7c-0.1,0.5-0.2,0.8-0.3,1.1
	c-0.1,0.2-0.4,0.4-0.7,0.4c-0.2,0-0.3,0-0.5-0.1c-0.1-0.1-0.2-0.2-0.3-0.4c-0.1-0.2-0.1-0.4-0.2-0.6c0-0.2,0-0.4,0-0.7v-0.6h3.8
	V88.4z M71.5,87c0-0.2,0-0.4,0-0.5c0-0.2,0.1-0.3,0.2-0.5c0.1-0.1,0.2-0.3,0.3-0.3c0.1-0.1,0.3-0.1,0.5-0.1s0.4,0,0.5,0.1
	s0.2,0.2,0.3,0.4c0.1,0.2,0.1,0.3,0.1,0.6c0,0.2,0,0.5,0.1,0.8h-2V87z"/>
<path class="st1" d="M79.8,85.7v-1.3h-1.1v-2.2h-1.9v2.2h-1v1.3h1V90c0,0.4,0,0.7,0.1,1c0,0.3,0.1,0.5,0.3,0.6
	c0.1,0.2,0.3,0.3,0.5,0.3s0.5,0.1,0.9,0.1c0.2,0,0.4,0,0.6,0s0.4,0,0.6,0v-1.3c-0.1,0-0.1,0-0.2,0s-0.2,0-0.2,0
	c-0.3,0-0.5-0.1-0.6-0.2s-0.1-0.3-0.1-0.6v-4.1h1.1V85.7z"/>
<path class="st1" d="M90.7,86.4c-0.1-0.5-0.3-0.9-0.5-1.3c-0.2-0.3-0.5-0.6-0.9-0.8c-0.4-0.2-0.9-0.2-1.4-0.2c-0.6,0-1,0.1-1.4,0.3
	c-0.4,0.2-0.7,0.4-0.9,0.8c-0.2,0.3-0.4,0.7-0.5,1.2s-0.2,1.1-0.2,1.7c0,0.7,0,1.2,0.1,1.7s0.3,0.9,0.5,1.2c0.2,0.3,0.5,0.6,0.9,0.7
	c0.4,0.2,0.9,0.2,1.4,0.2c0.6,0,1-0.1,1.4-0.2c0.4-0.2,0.7-0.4,0.9-0.7c0.2-0.3,0.4-0.7,0.5-1.2s0.2-1.1,0.2-1.7
	C90.9,87.5,90.8,86.9,90.7,86.4z M88.7,90.2c-0.1,0.4-0.4,0.6-0.8,0.6c-0.2,0-0.4-0.1-0.6-0.2c-0.1-0.1-0.2-0.3-0.3-0.5
	c-0.1-0.2-0.1-0.5-0.1-0.8s0-0.7,0-1.1s0-0.7,0-1.1c0-0.3,0.1-0.6,0.1-0.8c0.1-0.2,0.2-0.4,0.3-0.5c0.1-0.1,0.3-0.2,0.6-0.2
	c0.4,0,0.7,0.2,0.8,0.6c0.2,0.4,0.2,1.1,0.2,2C88.9,89.1,88.9,89.8,88.7,90.2z"/>
<path class="st1" d="M69,83.8c-0.1-0.4-0.3-0.7-0.5-1s-0.5-0.5-0.8-0.7s-0.8-0.3-1.3-0.3h-3.5v10h2v-4H66c0.5,0,0.9-0.1,1.3-0.2
	s0.7-0.3,1-0.5s0.5-0.6,0.6-0.9c0.2-0.4,0.2-0.8,0.2-1.4C69.1,84.5,69.1,84.1,69,83.8z M66.7,86.1c-0.2,0.2-0.6,0.4-1,0.4h-0.9v-3.1
	h0.8c0.5,0,0.9,0.1,1.1,0.4S67,84.4,67,85C67.1,85.4,67,85.8,66.7,86.1z"/>
<path class="st1" d="M84.3,84.2c-0.1,0-0.1,0-0.2,0c-0.4,0-0.7,0.1-1,0.3c-0.3,0.2-0.5,0.5-0.7,0.9l0,0v-1h-1.9V92h1.9v-4.5
	c0-0.3,0-0.5,0.1-0.6c0.1-0.2,0.2-0.3,0.3-0.4c0.1-0.1,0.3-0.2,0.5-0.2s0.3-0.1,0.5-0.1c0.1,0,0.2,0,0.3,0c0.1,0,0.2,0,0.3,0v-1.9
	C84.4,84.2,84.3,84.2,84.3,84.2z"/>
<rect x="92" y="81.9" class="st1" width="1.9" height="10"/>
<path class="st1" d="M105.6,84.4v5c0,0.8-0.3,1.3-1,1.3c-0.3,0-0.5-0.1-0.6-0.2c-0.1-0.2-0.2-0.4-0.2-0.8v-5.2h-1.9V90
	c0,0.8,0.2,1.3,0.5,1.6c0.3,0.3,0.8,0.5,1.4,0.5c0.4,0,0.8-0.1,1.1-0.2c0.3-0.2,0.6-0.4,0.8-0.8l0,0V92h1.9v-7.6H105.6z"/>
<path class="st1" d="M100.8,88.4V88c0-0.6,0-1.1-0.1-1.6s-0.2-0.9-0.4-1.2s-0.5-0.6-0.8-0.8c-0.4-0.2-0.8-0.3-1.4-0.3
	c-0.7,0-1.2,0.1-1.6,0.3c-0.4,0.2-0.7,0.5-0.9,0.9c-0.2,0.4-0.4,0.8-0.4,1.3c-0.1,0.5-0.1,1-0.1,1.5s0,1,0.1,1.4
	c0,0.5,0.2,0.9,0.3,1.3c0.2,0.4,0.5,0.7,0.9,0.9c0.4,0.2,0.9,0.4,1.6,0.4c0.9,0,1.6-0.2,2-0.7s0.7-1.1,0.7-2H99
	c-0.1,0.5-0.2,0.8-0.3,1.1c-0.2,0.2-0.4,0.4-0.7,0.4c-0.2,0-0.3,0-0.5-0.1c-0.1-0.1-0.2-0.2-0.3-0.4c-0.1-0.2-0.1-0.4-0.2-0.6
	c0-0.2,0-0.4,0-0.7v-0.6h3.8V88.4z M96.9,87c0-0.2,0-0.4,0-0.5c0-0.2,0.1-0.3,0.2-0.5c0.1-0.1,0.2-0.3,0.3-0.3
	c0.1-0.1,0.3-0.1,0.5-0.1s0.4,0,0.5,0.1s0.2,0.2,0.3,0.4c0.1,0.2,0.1,0.3,0.1,0.6c0,0.2,0,0.5,0.1,0.8h-2V87z"/>
<path class="st1" d="M117.7,84.7c-0.3-0.4-0.8-0.6-1.4-0.6c-0.5,0-0.9,0.1-1.2,0.3c-0.3,0.2-0.6,0.5-0.7,0.9l0,0
	c-0.1-0.4-0.3-0.7-0.6-0.9c-0.3-0.2-0.7-0.3-1.1-0.3s-0.8,0.1-1.1,0.2c-0.3,0.2-0.6,0.4-0.8,0.7l0,0v-0.8h-1.9v7.6h1.9v-5
	c0-0.5,0.1-0.8,0.3-1c0.2-0.2,0.4-0.3,0.7-0.3c0.3,0,0.5,0.1,0.6,0.3c0.1,0.2,0.2,0.4,0.2,0.7v5.3h1.9v-5c0-0.5,0.1-0.8,0.3-1
	c0.2-0.2,0.4-0.3,0.7-0.3c0.3,0,0.5,0.1,0.6,0.3c0.1,0.2,0.2,0.4,0.2,0.7v5.3h1.9v-5.5C118.2,85.7,118,85.1,117.7,84.7z"/>
<path class="st1" d="M17.2,86.4c-0.1-0.5-0.3-0.9-0.5-1.3c-0.2-0.3-0.5-0.6-0.9-0.8c-0.4-0.2-0.9-0.2-1.4-0.2c-0.6,0-1,0.1-1.4,0.3
	c-0.4,0.2-0.7,0.4-0.9,0.8c-0.2,0.3-0.4,0.7-0.5,1.2s-0.2,1.1-0.2,1.7c0,0.7,0,1.2,0.1,1.7s0.3,0.9,0.5,1.2c0.2,0.3,0.5,0.6,0.9,0.7
	c0.4,0.2,0.9,0.2,1.4,0.2s1-0.1,1.4-0.2c0.4-0.2,0.7-0.4,0.9-0.7c0.2-0.3,0.4-0.7,0.5-1.2s0.2-1.1,0.2-1.7
	C17.3,87.5,17.3,86.9,17.2,86.4z M15.2,90.2c-0.1,0.4-0.4,0.6-0.8,0.6c-0.2,0-0.4-0.1-0.6-0.2c-0.1-0.1-0.2-0.3-0.3-0.5
	s-0.1-0.5-0.1-0.8s0-0.7,0-1.1s0-0.7,0-1.1c0-0.3,0.1-0.6,0.1-0.8c0.1-0.2,0.2-0.4,0.3-0.5s0.3-0.2,0.6-0.2c0.4,0,0.7,0.2,0.8,0.6
	c0.2,0.4,0.2,1.1,0.2,2S15.3,89.8,15.2,90.2z"/>
<rect x="25" y="84.4" class="st1" width="1.9" height="7.6"/>
<rect x="25" y="81.8" class="st1" width="1.9" height="1.7"/>
<path class="st1" d="M42.5,84.4l-1,5.2l0,0l-1.1-5.2h-2l2.1,7.6c0,0.3-0.1,0.6-0.3,0.7C40,92.9,39.8,93,39.4,93c-0.2,0-0.3,0-0.5,0
	v1.4h0.8c0.4,0,0.8,0,1.1-0.1s0.5-0.2,0.8-0.4c0.2-0.2,0.4-0.5,0.5-0.9c0.2-0.4,0.3-0.9,0.5-1.5l1.8-7.1H42.5z"/>
<path class="st1" d="M57.8,83.2c0.1-0.1,0.3-0.1,0.6-0.1h0.2c0.1,0,0.1,0,0.2,0v-1.4c-0.3,0-0.7,0-1,0s-0.6,0-0.8,0.1
	c-0.3,0.1-0.5,0.2-0.6,0.3c-0.2,0.1-0.3,0.3-0.4,0.6c-0.1,0.2-0.1,0.5-0.1,0.9v0.9h-1v1.3h1V92h1.9v-6.2h1.1v-1.3h-1.1v-0.7
	C57.6,83.5,57.7,83.3,57.8,83.2z"/>
<path class="st1" d="M7.2,92.1c1.1,0,1.9-0.2,2.6-0.7c0.6-0.5,0.9-1.3,0.9-2.3c0-0.3,0-0.6-0.1-0.8c-0.1-0.3-0.2-0.5-0.3-0.7
	S10,87.2,9.7,87c-0.2-0.2-0.6-0.4-0.9-0.5l-1.6-0.7c-0.4-0.2-0.7-0.4-0.8-0.6c-0.1-0.2-0.2-0.5-0.2-0.8c0-0.2,0-0.3,0-0.4
	s0.1-0.3,0.2-0.4s0.2-0.2,0.4-0.3c0.1-0.1,0.3-0.1,0.6-0.1c0.4,0,0.7,0.1,0.8,0.4c0.2,0.3,0.3,0.6,0.3,1.1h1.9v-0.3
	c0-0.5-0.1-0.9-0.2-1.2c-0.2-0.3-0.4-0.6-0.6-0.8c-0.3-0.2-0.6-0.4-1-0.5s-0.8-0.1-1.2-0.1c-1,0-1.7,0.2-2.3,0.7s-0.8,1.2-0.8,2.2
	c0,0.4,0.1,0.8,0.2,1.1c0.1,0.3,0.3,0.6,0.5,0.8c0,0.2,0.3,0.4,0.6,0.6c0.3,0.2,0.7,0.3,1.2,0.5c0.3,0.1,0.6,0.2,0.8,0.3
	c0.2,0.1,0.4,0.2,0.6,0.4c0.1,0.1,0.2,0.3,0.3,0.4c0.1,0.2,0.1,0.4,0.1,0.6c0,0.4-0.1,0.7-0.4,0.9c-0.2,0.2-0.5,0.3-0.8,0.3
	s-0.5,0-0.7-0.1s-0.3-0.2-0.4-0.3c-0.1-0.1-0.2-0.3-0.2-0.5C6,89.5,6,89.3,6,89.1v-0.3H4v0.4c0,0.9,0.2,1.6,0.7,2.1
	C5.2,91.8,6,92.1,7.2,92.1z"/>
<path class="st1" d="M21.8,90.4c-0.1,0.3-0.4,0.4-0.7,0.4c-0.2,0-0.4,0-0.5-0.1s-0.2-0.3-0.3-0.5c-0.1-0.2-0.1-0.5-0.2-0.8
	c0-0.3,0-0.7,0-1.2c0-0.4,0-0.8,0-1.1c0-0.3,0.1-0.6,0.2-0.8c0.1-0.2,0.2-0.4,0.3-0.5c0.2-0.1,0.3-0.2,0.6-0.2c0.2,0,0.3,0,0.4,0.1
	s0.2,0.2,0.3,0.3c0.1,0.1,0.1,0.3,0.1,0.5s0,0.4,0,0.5h1.9c0-0.9-0.2-1.6-0.7-2.1s-1.1-0.8-2-0.8c-0.5,0-0.9,0.1-1.2,0.2
	c-0.4,0.1-0.7,0.3-1,0.6c-0.3,0.3-0.5,0.7-0.6,1.2s-0.2,1.2-0.2,1.9c0,0.8,0.1,1.4,0.2,1.9s0.3,0.9,0.5,1.2c0.2,0.3,0.5,0.5,0.9,0.6
	s0.8,0.2,1.3,0.2c1,0,1.8-0.3,2.2-0.8c0.4-0.5,0.7-1.3,0.7-2.3h-2C22,89.6,21.9,90.1,21.8,90.4z"/>
<path class="st1" d="M38.2,85.7v-1.3h-1.1v-2.2h-1.9v2.2h-1v1.3h1V90c0,0.4,0,0.7,0.1,1c0,0.3,0.1,0.5,0.3,0.6
	c0.1,0.2,0.3,0.3,0.5,0.3S36.6,92,37,92c0.2,0,0.4,0,0.6,0c0.2,0,0.4,0,0.6,0v-1.3c-0.1,0-0.1,0-0.2,0c-0.1,0-0.1,0-0.2,0
	c-0.3,0-0.5-0.1-0.6-0.2s-0.1-0.3-0.1-0.6v-4.1h1.1V85.7z"/>
<path class="st1" d="M54.1,86.4c-0.1-0.5-0.3-0.9-0.5-1.3c-0.2-0.3-0.5-0.6-0.9-0.8c-0.4-0.2-0.9-0.2-1.4-0.2s-1,0.1-1.4,0.3
	c-0.4,0.2-0.7,0.4-0.9,0.8c-0.2,0.3-0.4,0.7-0.5,1.2s-0.2,1.1-0.2,1.7c0,0.7,0,1.2,0.1,1.7s0.3,0.9,0.5,1.2c0.2,0.3,0.5,0.6,0.9,0.7
	c0.4,0.2,0.9,0.2,1.4,0.2c0.6,0,1-0.1,1.4-0.2c0.4-0.2,0.7-0.4,0.9-0.7c0.2-0.3,0.4-0.7,0.5-1.2s0.2-1.1,0.2-1.7
	C54.2,87.5,54.2,86.9,54.1,86.4z M52.1,90.2c-0.1,0.4-0.4,0.6-0.8,0.6c-0.2,0-0.4-0.1-0.6-0.2c-0.1-0.1-0.2-0.3-0.3-0.5
	s-0.1-0.5-0.1-0.8s0-0.7,0-1.1s0-0.7,0-1.1c0-0.3,0.1-0.6,0.1-0.8c0.1-0.2,0.2-0.4,0.3-0.5s0.3-0.2,0.6-0.2c0.4,0,0.7,0.2,0.8,0.6
	c0.2,0.4,0.2,1.1,0.2,2S52.2,89.8,52.1,90.2z"/>
<path class="st1" d="M33.8,88.4V88c0-0.6,0-1.1-0.1-1.6s-0.2-0.9-0.4-1.2c-0.2-0.3-0.5-0.6-0.9-0.8c-0.4-0.2-0.8-0.3-1.4-0.3
	c-0.7,0-1.2,0.1-1.6,0.3c-0.4,0.2-0.7,0.5-0.9,0.9c-0.2,0.4-0.4,0.8-0.4,1.3c-0.1,0.5-0.1,1-0.1,1.5s0,1,0.1,1.4
	c0,0.5,0.2,0.9,0.3,1.3c0.2,0.4,0.5,0.7,0.9,0.9c0.4,0.2,0.9,0.4,1.6,0.4c0.9,0,1.6-0.2,2-0.7s0.7-1.1,0.7-2h-1.7
	c-0.1,0.5-0.2,0.8-0.3,1.1c-0.1,0.2-0.4,0.4-0.7,0.4c-0.2,0-0.3,0-0.4-0.1s-0.2-0.2-0.3-0.4C30,90.1,30,89.9,30,89.7
	c0-0.2,0-0.4,0-0.7v-0.6H33.8z M29.9,87c0-0.2,0-0.4,0-0.5c0-0.2,0.1-0.3,0.2-0.5c0.1-0.1,0.2-0.3,0.3-0.3c0.1-0.1,0.3-0.1,0.5-0.1
	s0.4,0,0.5,0.1s0.2,0.2,0.3,0.4c0.1,0.2,0.1,0.3,0.1,0.6c0,0.2,0,0.5,0.1,0.8h-2V87z"/>
<path class="st1" d="M152.6,68.2h0.7l1,1.6h0.6l-1.1-1.6c0.5-0.1,1-0.4,1-1c0-0.7-0.4-1.1-1.3-1.1H152v3.7h0.6V68.2z M152.6,66.6
	h0.8c0.4,0,0.8,0.1,0.8,0.5c0,0.6-0.4,0.6-0.9,0.6h-0.7L152.6,66.6L152.6,66.6z"/>
<path class="st1" d="M153.3,71.2c1.8,0,3.3-1.4,3.3-3.3s-1.5-3.2-3.3-3.2s-3.3,1.4-3.3,3.2C150,69.8,151.5,71.2,153.3,71.2z
	 M153.3,65.3c1.5,0,2.6,1.2,2.6,2.7c0,1.6-1.2,2.7-2.6,2.7c-1.5,0-2.6-1.1-2.6-2.7C150.6,66.4,151.8,65.3,153.3,65.3z"/>
<path class="st1" d="M101.9,42.8c-1.1,0-1.2,0.9-1.2,1.6c0,0.7,0.2,1.6,1.2,1.6s1.2-0.9,1.2-1.6C103.1,43.7,102.9,42.8,101.9,42.8z"
	/>
<path class="st1" d="M90,45.4c0,0.5,0.3,0.6,0.6,0.6c0.6,0,1.2-0.4,1.2-1v-0.7c-0.1,0.1-0.3,0.2-0.9,0.3C90.4,44.7,90,44.8,90,45.4z
	"/>
<path class="st1" d="M111.5,45.4c0,0.5,0.3,0.6,0.6,0.6c0.6,0,1.2-0.4,1.2-1v-0.7c-0.1,0.1-0.3,0.2-0.9,0.3
	C111.9,44.7,111.5,44.8,111.5,45.4z"/>
<path class="st1" d="M91,29.5h-2.1v2.7h1.9c1,0,2.6,0,2.6-1.4C93.4,29.5,92,29.5,91,29.5z"/>
<path class="st1" d="M123.4,2c-15.2,0-28.1,9.6-33.1,23.1C85.4,11.6,72.5,2,57.3,2C37.9,2,22.1,17.7,22.1,37.2
	c0,19.4,15.8,35.2,35.2,35.2c15.2,0,28.1-9.6,33.1-23.1c4.9,13.5,17.9,23.1,33.1,23.1c19.4,0,35.2-15.7,35.2-35.2
	C158.6,17.7,142.8,2,123.4,2z M64.9,52.3l-1.4-0.4l-0.1,0.4h-1l0.2-1.8l0.9,0.2l2-0.2L64,51.3L64.9,52.3z M63.9,46.9V40h1.4v6.9
	H63.9z M64,32.7l-0.3-0.6h1.2l1.1-1.8v-2.5l0.6-1.3l0.8,1.3h-1.1l0.8,2.5l-1.3,2.4H64z M66.3,41.7h1.3v0.8c0.1-0.3,0.5-0.9,1.5-0.9
	s1.8,0.6,1.8,1.7v3.5h-1.4v-3.1c0-0.4,0-1-0.9-1c-0.6,0-1.1,0.4-1.1,1.2h0.2v2.9h-1.4V41.7z M69.6,50.7l0.7,0.9l1.8,1.2h-2.9
	l-0.8-1.2l-2-0.9H69.6z M72,45.9v-3.1h-0.7v-1H72v-1.4h1.3h0.1h-0.1v1.4h0.8v1h-0.8v2.8c0,0.3,0.1,0.4,0.6,0.4c0.1,0,0.2,0,0.3,0v1
	c-0.2,0-0.4,0-0.6,0h-0.2C72.2,47,72,46.6,72,45.9z M71,37.7c-1-0.6-1.7-1.6-1.8-2.8h4.4c0.1,0.4,0.4,0.7,0.7,0.9
	c0.4,0.2,1,0.3,1.6,0.3c0.6,0,1.1-0.1,1.4-0.3c0.3-0.1,0.5-0.4,0.6-0.7c0-0.5-0.8-0.9-2.1-1.1c-0.2-0.2-0.4-0.2-0.6-0.2
	c-0.9-0.2-1.9-0.4-2.6-0.6c-0.6-0.2-1.1-0.3-1.4-0.5c-0.6-0.3-1.1-0.8-1.3-1.1c-0.2-0.5-0.3-1-0.3-1.6c0-1.2,0.4-2,1.3-2.5
	c1.1-0.7,2.6-1,4.5-1c1.9,0,3.4,0.4,4.4,1c1.1,0.6,1.7,1.5,1.8,2.6h-4.2c-0.1-0.4-0.3-0.7-0.6-0.8C76.5,29,75.9,29,75.4,29
	c-0.6,0-1,0.1-1.2,0.2c-0.2,0.1-0.4,0.4-0.4,0.7c0,0.5,0.7,0.9,2,1.1c0.1,0,0.2,0,0.2,0c0.1,0,0.3,0.1,0.4,0.1c0.2,0,0.3,0,0.5,0.1
	c1.6,0.2,2.8,0.6,3.4,0.9c0.7,0.3,1.1,0.7,1.4,1.1c0.3,0.4,0.5,1,0.5,1.5c0,1.3-0.6,2.3-1.7,3c-1.3,0.7-2.9,1-4.9,1
	C73.7,38.7,72.2,38.4,71,37.7z M28.1,25.1v-0.9l0.6-0.2l-0.4-1.8h1l-0.1,0.9l0.6,1.5v1.1h-1.7l0.3-0.3L28.1,25.1z M26.7,23.1h0.9
	l-0.4,1.4h-0.9L26.7,23.1z M42.4,55.4L41,53.1l2.3-4l1.8,2.2L42.4,55.4z M51.8,45.3l-0.4-0.9l0.7-1.1l0.4,0.8L51.8,45.3z M53.4,39.1
	l-2.5,4.6l-2.1-4l-0.9-2.9h-2l-1.4-3.2h-1.6l2.2,4.3h0.8l0.6,0.7l-3.2,1.6l-2.7-5L38.8,35l1.6,4.3l2,2.4h2.9l-1.5,2.9L41,46.9l0.2,2
	l-1.7,3L39.2,54l-1.5,3.4h-2.9l-2.9-4.6l1.1-3.9l-1.6-3.6l0.7-0.9l-0.9-1.1l-4.8,0.4l-1.9-2.2v-5l3.1-3l-1.6-1l0.3-2L26,29.8h2.4
	v-1.5l-1-1.7h3l0.8-2h0.7l-0.5-1l0.2-0.5l0.9,1.4h2.3l2.9-1.8v-1.4l-2,0.2l-0.6-1.1l0.8-2.3L35.4,17l-1.8,3.4l0.7,0.9l-0.9,2
	l-0.9-1.8l-0.6,1l-0.7-1.2l0.2-1.8l3.7-4.9H38l0.8,2h-1.3l2.3,1.5l1.2-3.3h2.9l2.6-4h10.7l1.5,2h9.6l0.4,0.9l7.6,0.4l1.2,0.7
	l3.1,0.2l1.2,0.5h-8.2l0.6,1.1l-2.9,3.8L71,18.8l1.4-2l-4.1,2.5L66,23.6l1.1,0.1l-2.2,3.8h-1.4l-0.9,3l0.9,1.1l-0.7,1.1l-1.1-2.2
	h-1.5l-0.5,1.8l1.9,1.8l-0.3,2.3l-1.1,1l-2.6,1.4l1.4,2.3v1.8l-2,1.2l-1.1-2.6v3.7l0.9,1.2v1.7l-0.9-1.2l-0.7-1.4v-5.2l-0.5-1.2
	H53.4z M61.9,49.6l-0.3,2.7h-2.1L59,51.1l0.7-0.4l1.6-1.8L61.9,49.6z M56.7,50.3L55,48.2v-1.3l2.5,3.3l0.6,0.8v1L56.7,50.3z
	 M68.7,63.7h-1.8l-1.4-1.6l-2-0.3L59,63l-1.1-0.9l-0.3-3.5l2.8-1.6l0.9-2.2l0.9,0.4l0.6-0.4l1.4-0.3v0.9l2.4,0.9l1.5-3.2l1.1,3.2
	l2,3.2l-0.9,2.3L68.7,63.7z M73,65.6h-2l1.4-2.6h1L73,64.2h0.6L73,65.6z M74.2,61.8H73l0.9-1.7h1.4L74.2,61.8z M79.4,44.7h-3.5
	c0,0.4,0.1,1.3,1.2,1.3c0.4,0,0.8-0.2,0.9-0.6h1.4C79,46.6,78,47,77.1,47c-1.5,0-2.6-0.7-2.6-2.8c0-0.6,0.3-2.6,2.5-2.6
	c1,0,2.4,0.5,2.4,2.9V44.7z M83,43c-0.1,0-0.3,0-0.4,0c-1,0-1.2,0.6-1.2,1.2v2.6H80v-5.1h1.3v0.9c0.3-0.5,0.6-1,1.4-1
	c0.1,0,0.2,0,0.3,0V43z M88.4,46.8H87v-3.1c0-0.4,0-1-0.9-1c-0.6,0-1.1,0.4-1.1,1.2v2.9h-1.4v-5.1h1.3v0.8c0.1-0.3,0.5-0.9,1.5-0.9
	s1.7,0.6,2,1.7V46.8z M93.5,46.9H92c-0.1-0.2-0.1-0.3-0.1-0.6c-0.3,0.3-0.8,0.7-1.7,0.7c-0.8,0-1.6-0.4-1.6-1.5c0-1,0.6-1.5,1.5-1.6
	l1.2-0.2c0.2,0,0.5-0.1,0.6-0.4c0-0.6-0.6-0.6-0.9-0.6c-0.6,0-0.8,0.4-0.8,0.7h-1.3c0.2-1.6,1.2-1.8,2.3-1.8c0.7,0,2,0.2,2,1.5v2.8
	c0,0.6,0.1,0.7,0.3,0.8V46.9z M96.3,46.9c-0.2,0-0.4,0-0.6,0h-0.2c-1.2,0-1.4-0.4-1.4-1.1H94v-3.1h-0.7v-1H94v-1.4h1.4v1.4h0.8v1
	h-0.8v2.8c0,0.3,0,0.4,0.6,0.4c0.1,0,0.2,0,0.3,0V46.9z M91.6,34.9h-2.9v3.7h-4.5v-12H92c4.3,0,5.5,2.7,5.5,4.1
	C97.5,33.4,95.4,34.9,91.6,34.9z M98.6,46.9h-1.4v-5.1h1.4V46.9z M98.6,41.2h-1.4v-1.3h1.4V41.2z M135.3,7.9V6.2l2.3,1.7l3.5,4.1
	l-2.3,2.3l-1.2,3.6h-0.8l-3-5.4h-1.1l-1.6-2.6h-1.6l-0.9-2H135.3z M127.5,10.8l0.5,0.6h2l1.8,3.4h1.1l1.3,2.7h-3.1l-0.7-1.8h-1.5
	l-0.7-1.4h2.1l-1-1.8h-3l-1-1.7H127.5z M99.6,26.5h11.5v2.6h-7V31h5.9v2.5h-5.9v2.1h7.4v2.7H99.6V26.5z M101.9,47
	c-1.4,0-2.6-0.8-2.6-2.7c0-1.9,1.2-2.7,2.6-2.7c1.4,0,2.6,0.8,2.6,2.7C104.5,46.2,103.3,47,101.9,47z M109.8,46.8h-1.4v-3.1
	c0-0.4,0-1-0.9-1c-0.6,0-1.1,0.4-1.1,1.2v2.9H105v-5.1h1.4v0.8c0.1-0.3,0.5-0.9,1.5-0.9s1.8,0.6,1.9,1.7V46.8z M115,46.9h-1.5
	c-0.1-0.2-0.1-0.3-0.1-0.6c-0.3,0.3-0.8,0.7-1.7,0.7c-0.8,0-1.6-0.4-1.6-1.5c0-1,0.6-1.5,1.5-1.6l1.2-0.2c0.3,0,0.5-0.1,0.6-0.4
	c0-0.6-0.6-0.6-0.9-0.6c-0.6,0-0.8,0.4-0.8,0.7h-1.3c0.2-1.6,1.2-1.8,2.3-1.8c0.7,0,2,0.2,2,1.5v2.8c0,0.6,0.1,0.7,0.3,0.8V46.9z
	 M116.9,46.9h-1.4V40h1.4V46.9z M140.3,46.9v2.2l-3.2,2.2l-1.3,1.8h-1.7v1.7l-2.3,2.2l0.6,3.3l-2-0.8l-0.9-2.1l2.3-10.5l-2.7-2
	l-0.9-2.9l0.9-2.7H128l-6.5-4.8l-2.5-4.9h-1.6l1.8,3.6h-0.6l-2-3.6l-0.9-2.7l0.1-2.3l-1.3-1.5l-0.7-2.9l-2.2-1.4l-2.5,0.2l-1.8,1.4
	l-3.5,1.8h-1l3-2h-1.9l-0.7-1.2l0.7-0.9H103l-0.4-0.6h1.2l-0.8-2.3l1.9-1.5l8.5,0.6l2.3-1.1l4.4,0.9l2.9-1.6h1.2l1.3,2.5l0.7-1.1
	h0.6l0.9,2.2h-2.9l-0.9,2.7l1.2,1.9h1.5l0.8,1.2l1.2-2.1l-1.1-2.3h2.3l1.1,2.4h2.7l-0.3-0.9h1.4l1.8,3.7h-5.4l0.7,1.3h2l0.7,0.6
	h-2.3l-1.3,2.5h-1.1v1.2l0.2,1.3l-1.4,1.6l0.9,2.3l-0.6,0.1l-1.2-2l-4-0.1l0.9,3.2l1.1,0.9v-0.9h1.1l-0.5,1.7l1.4,1.8l2.1,0.1
	l0.5-0.9h4.8l3.4,2.8v1.3h1.8l1.7,0.8l0.1,3.2L140.3,46.9z M133.6,35.4v0.5l-2.3-0.5H130v-0.7h1.3L133.6,35.4z M144.4,15.7h-1.8
	l-1.1-2.5h3.4l0.3,0.9L144.4,15.7z"/>
<path class="st1" d="M77,42.7c-0.7,0-1,0.4-1.1,1.1H78C78,43,77.4,42.7,77,42.7z"/>
<polygon class="st1" points="32.5,34.4 35.7,35.2 35.7,34.4 38.8,34.4 39.8,32.3 37.1,32.3 36.8,30.5 41.2,30.5 40,28.5 37.7,28.5 
	35.9,31.2 34.3,28.3 33.4,28.3 34.5,30.9 33.4,32.3 33.4,30.9 32.5,28.7 30.1,29.6 29.3,31.8 27.6,33.5 32.3,33.2 "/>
</svg>
