<svg width="24" height="24" viewBox="0 0 24 24" fill="white" xmlns="http://www.w3.org/2000/svg">
<path d="M2.99996 4.99998C2.86745 4.9981 2.73589 5.02259 2.61292 5.072C2.48995 5.12141 2.37803 5.19477 2.28366 5.28782C2.18929 5.38086 2.11435 5.49173 2.0632 5.61399C2.01206 5.73625 1.98572 5.86745 1.98572 5.99998C1.98572 6.1325 2.01206 6.26371 2.0632 6.38596C2.11435 6.50822 2.18929 6.61909 2.28366 6.71214C2.37803 6.80518 2.48995 6.87854 2.61292 6.92796C2.73589 6.97737 2.86745 7.00185 2.99996 6.99998H21C21.1325 7.00185 21.264 6.97737 21.387 6.92796C21.51 6.87854 21.6219 6.80518 21.7163 6.71214C21.8106 6.61909 21.8856 6.50822 21.9367 6.38596C21.9879 6.26371 22.0142 6.1325 22.0142 5.99998C22.0142 5.86745 21.9879 5.73625 21.9367 5.61399C21.8856 5.49173 21.8106 5.38086 21.7163 5.28782C21.6219 5.19477 21.51 5.12141 21.387 5.072C21.264 5.02259 21.1325 4.9981 21 4.99998H2.99996ZM2.99996 11C2.86745 10.9981 2.73589 11.0226 2.61292 11.072C2.48995 11.1214 2.37803 11.1948 2.28366 11.2878C2.18929 11.3809 2.11435 11.4917 2.0632 11.614C2.01206 11.7362 1.98572 11.8675 1.98572 12C1.98572 12.1325 2.01206 12.2637 2.0632 12.386C2.11435 12.5082 2.18929 12.6191 2.28366 12.7121C2.37803 12.8052 2.48995 12.8785 2.61292 12.928C2.73589 12.9774 2.86745 13.0019 2.99996 13H21C21.1325 13.0019 21.264 12.9774 21.387 12.928C21.51 12.8785 21.6219 12.8052 21.7163 12.7121C21.8106 12.6191 21.8856 12.5082 21.9367 12.386C21.9879 12.2637 22.0142 12.1325 22.0142 12C22.0142 11.8675 21.9879 11.7362 21.9367 11.614C21.8856 11.4917 21.8106 11.3809 21.7163 11.2878C21.6219 11.1948 21.51 11.1214 21.387 11.072C21.264 11.0226 21.1325 10.9981 21 11H2.99996ZM2.99996 17C2.86745 16.9981 2.73589 17.0226 2.61292 17.072C2.48995 17.1214 2.37803 17.1948 2.28366 17.2878C2.18929 17.3809 2.11435 17.4917 2.0632 17.614C2.01206 17.7362 1.98572 17.8675 1.98572 18C1.98572 18.1325 2.01206 18.2637 2.0632 18.386C2.11435 18.5082 2.18929 18.6191 2.28366 18.7121C2.37803 18.8052 2.48995 18.8785 2.61292 18.928C2.73589 18.9774 2.86745 19.0019 2.99996 19H21C21.1325 19.0019 21.264 18.9774 21.387 18.928C21.51 18.8785 21.6219 18.8052 21.7163 18.7121C21.8106 18.6191 21.8856 18.5082 21.9367 18.386C21.9879 18.2637 22.0142 18.1325 22.0142 18C22.0142 17.8675 21.9879 17.7362 21.9367 17.614C21.8856 17.4917 21.8106 17.3809 21.7163 17.2878C21.6219 17.1948 21.51 17.1214 21.387 17.072C21.264 17.0226 21.1325 16.9981 21 17H2.99996Z" />
</svg>
