<svg width="459" height="567" viewBox="0 0 459 567" fill="none" xmlns="http://www.w3.org/2000/svg">
<rect y="1" width="458" height="565" fill="url(#paint0_linear_199_41)"/>
<path d="M0.21814 126.705C32.9133 127.756 109.189 136.949 152.733 165.317C207.161 200.778 264.425 215.75 304.113 213.386C343.801 211.022 446.989 224.024 457.761 238.602" stroke="#6592C4" stroke-opacity="0.53" stroke-width="2"/>
<path d="M0.21814 94.0024C30.6353 94.9794 98.7526 102.997 143.185 126.924C146.538 128.729 149.756 130.625 152.812 132.615C207.269 168.075 264.563 183.048 304.272 180.684C343.98 178.32 447.222 191.322 458 205.9" stroke="#6592C4" stroke-opacity="0.53" stroke-width="2"/>
<path d="M0.21814 62.4819C32.9133 63.5326 109.189 72.7261 152.733 101.094C207.161 136.555 264.425 151.527 304.113 149.163C343.801 146.799 446.989 159.801 457.761 174.379" stroke="#6592C4" stroke-opacity="0.53" stroke-width="2"/>
<path d="M0.21814 34.5076C32.9133 35.5582 109.189 44.7517 152.733 73.1201C207.161 108.581 264.425 123.553 304.113 121.189C343.801 118.825 446.989 131.827 457.761 146.405" stroke="#6592C4" stroke-opacity="0.53" stroke-width="2"/>
<path d="M0.21814 1C32.9133 2.05068 109.189 11.2441 152.733 39.6125C207.161 75.073 264.425 90.0452 304.113 87.6812C343.801 85.3172 446.989 98.3193 457.761 112.898" stroke="#6592C4" stroke-opacity="0.53" stroke-width="2"/>
<path d="M56 1C84.7261 1.68545 151.743 7.6831 190 26.1901C237.822 49.3239 288.134 59.0916 323.004 57.5493C357.874 56.007 448.535 64.4894 458 74" stroke="#6592C4" stroke-opacity="0.53" stroke-width="2"/>
<path d="M134 1C157.152 1.4507 211.166 5.39437 242 17.5634C280.543 32.7746 321.093 39.1972 349.197 38.1831C377.301 37.169 450.372 42.7465 458 49" stroke="#6592C4" stroke-opacity="0.53" stroke-width="2"/>
<path d="M275 1C288.077 1.18779 318.584 2.83099 336 7.90141C357.77 14.2394 380.673 16.9155 396.546 16.493C412.42 16.0704 453.691 18.3944 458 21" stroke="#6592C4" stroke-opacity="0.53" stroke-width="2"/>
<path d="M0.21814 154.285C32.9133 155.336 109.189 164.529 152.733 192.898C207.161 228.358 264.425 243.33 304.113 240.966C343.801 238.602 446.989 251.604 457.761 266.183" stroke="#6592C4" stroke-opacity="0.53" stroke-width="2"/>
<path d="M0.21814 182.654C32.9133 183.704 109.189 192.898 152.733 221.266C207.161 256.727 264.425 271.699 304.113 269.335C343.801 266.971 446.989 279.973 457.761 294.551" stroke="#6592C4" stroke-opacity="0.53" stroke-width="2"/>
<path d="M0.21814 213.78C32.9133 214.831 109.189 224.024 152.733 252.393C207.161 287.853 264.425 302.825 304.113 300.461C343.801 298.097 446.989 311.099 457.761 325.678" stroke="#6592C4" stroke-opacity="0.53" stroke-width="2"/>
<path d="M0.21814 249.24C32.9133 250.291 109.189 259.485 152.733 287.853C207.161 323.313 264.425 338.286 304.113 335.922C343.801 333.558 446.989 346.56 457.761 361.138" stroke="#6592C4" stroke-opacity="0.53" stroke-width="2"/>
<path d="M0.21814 286.277C32.9133 287.328 109.189 296.521 152.733 324.89C207.161 360.35 264.425 375.322 304.113 372.958C343.801 370.594 446.989 383.596 457.761 398.175" stroke="#6592C4" stroke-opacity="0.53" stroke-width="2"/>
<path d="M0.21814 328.233C32.9133 329.284 109.189 338.478 152.733 366.846C207.161 402.306 264.425 417.279 304.113 414.915C343.801 412.551 446.989 425.553 457.761 440.131" stroke="#6592C4" stroke-opacity="0.53" stroke-width="2"/>
<path d="M0.21814 370.19C32.9133 371.24 109.189 380.434 152.733 408.802C207.161 444.263 264.425 459.235 304.113 456.871C343.801 454.507 446.989 467.509 457.761 482.087" stroke="#6592C4" stroke-opacity="0.53" stroke-width="2"/>
<path d="M0.21814 412.146C32.9133 413.197 109.189 422.39 152.733 450.759C207.161 486.219 264.425 501.191 304.113 498.827C343.801 496.463 446.989 509.465 457.761 524.044" stroke="#6592C4" stroke-opacity="0.53" stroke-width="2"/>
<path d="M0.21814 454.102C32.9133 455.153 109.189 464.346 152.733 492.715C207.161 528.175 264.425 543.148 304.113 540.783C343.801 538.419 446.989 551.422 457.761 566" stroke="#6592C4" stroke-opacity="0.53" stroke-width="2"/>
<path d="M1 482C42.4262 488.522 130.044 508.388 149.107 535.68C168.169 562.971 210.311 567.118 229 565.78" stroke="#6592C4" stroke-opacity="0.53"/>
<path d="M1 516C29.526 519.882 89.8594 531.707 102.986 547.952C116.112 564.197 145.131 566.666 158 565.869" stroke="#6592C4" stroke-opacity="0.53"/>
<path d="M1 542C20.8046 543.863 62.6922 549.54 71.8053 557.337C80.9184 565.135 101.066 566.32 110 565.937" stroke="#6592C4" stroke-opacity="0.53"/>
<defs>
<linearGradient id="paint0_linear_199_41" x1="229" y1="1" x2="229" y2="566" gradientUnits="userSpaceOnUse">
<stop stop-color="#6251CA"/>
<stop offset="0.583333" stop-color="#0D4C94"/>
<stop offset="1" stop-color="#516BCA"/>
</linearGradient>
</defs>
</svg>
