<svg width="24" height="24" viewBox="0 0 24 24" fill="#F6BB43" xmlns="http://www.w3.org/2000/svg">
<path fill-rule="evenodd" clip-rule="evenodd" d="M22.5 12C22.5 14.7848 21.3938 17.4555 19.4246 19.4246C17.4555 21.3938 14.7848 22.5 12 22.5C9.21523 22.5 6.54451 21.3938 4.57538 19.4246C2.60625 17.4555 1.5 14.7848 1.5 12C1.5 9.21523 2.60625 6.54451 4.57538 4.57538C6.54451 2.60625 9.21523 1.5 12 1.5C14.7848 1.5 17.4555 2.60625 19.4246 4.57538C21.3938 6.54451 22.5 9.21523 22.5 12V12ZM10.1655 17.223L17.064 12.624C17.1667 12.5555 17.2509 12.4627 17.3092 12.3539C17.3674 12.245 17.3979 12.1235 17.3979 12C17.3979 11.8765 17.3674 11.755 17.3092 11.6461C17.2509 11.5373 17.1667 11.4445 17.064 11.376L10.1655 6.777C10.0526 6.70184 9.92135 6.65873 9.78584 6.65224C9.65033 6.64576 9.5156 6.67616 9.396 6.74019C9.2764 6.80422 9.17641 6.8995 9.10667 7.01586C9.03694 7.13223 9.00007 7.26534 9 7.401V16.599C9.00007 16.7347 9.03694 16.8678 9.10667 16.9841C9.17641 17.1005 9.2764 17.1958 9.396 17.2598C9.5156 17.3238 9.65033 17.3542 9.78584 17.3478C9.92135 17.3413 10.0526 17.2982 10.1655 17.223V17.223Z" />
</svg>
