<svg width="24" height="24" viewBox="0 0 24 24" fill="none" xmlns="http://www.w3.org/2000/svg">
    <path d="M4.62 18.12c1.02-.78 2.16-1.395 3.42-1.846 1.26-.45 2.58-.674 3.96-.674s2.7.225 3.96.674c1.26.45 2.4 1.066 3.42 1.846.7-.82 1.245-1.75 1.636-2.79.39-1.04.584-2.15.584-3.33 0-2.66-.935-4.925-2.804-6.796C16.926 3.334 14.66 2.4 12 2.4s-4.925.935-6.794 2.804C3.336 7.074 2.4 9.34 2.4 12c0 1.18.195 2.29.586 3.33.39 1.04.934 1.97 1.634 2.79zM12 13.2c-1.18 0-2.175-.405-2.986-1.214C8.204 11.176 7.8 10.18 7.8 9c0-1.18.405-2.175 1.214-2.986C9.824 5.204 10.82 4.8 12 4.8c1.18 0 2.175.405 2.986 1.214.81.81 1.214 1.806 1.214 2.986 0 1.18-.405 2.175-1.214 2.986-.81.81-1.806 1.214-2.986 1.214zM12 24c-1.66 0-3.22-.315-4.68-.946a12.11 12.11 0 0 1-3.81-2.564 12.11 12.11 0 0 1-2.564-3.81C.316 15.22 0 13.66 0 12c0-1.66.315-3.22.946-4.68A12.11 12.11 0 0 1 3.51 3.51 12.127 12.127 0 0 1 7.32.944C8.78.314 10.34 0 12 0c1.66 0 3.22.315 4.68.944 1.46.63 2.73 1.486 3.81 2.566a12.11 12.11 0 0 1 2.564 3.81c.63 1.46.946 3.02.946 4.68 0 1.66-.315 3.22-.946 4.68a12.11 12.11 0 0 1-2.564 3.81 12.11 12.11 0 0 1-3.81 2.564c-1.46.63-3.02.946-4.68.946z" fill="#fff"/>
</svg>
