<?xml version="1.0"?><svg xmlns="http://www.w3.org/2000/svg" width="100" height="756" ><rect x="0" y="0" width="100%" height="100%" fill="rgb(9, 132, 227)" /><path d="M0 53 C 17.5 0, 33 0, 50 53 S 83 106, 100 53 S 133 0, 150, 53" fill="none" stroke="#ddd" style="opacity:0.02;stroke-width:21px;" transform="translate(-25, -79.5)" /><path d="M0 53 C 17.5 0, 33 0, 50 53 S 83 106, 100 53 S 133 0, 150, 53" fill="none" stroke="#ddd" style="opacity:0.02;stroke-width:21px;" transform="translate(-25, 676.5)" /><path d="M0 53 C 17.5 0, 33 0, 50 53 S 83 106, 100 53 S 133 0, 150, 53" fill="none" stroke="#222" style="opacity:0.063333333333333;stroke-width:21px;" transform="translate(-25, -58.5)" /><path d="M0 53 C 17.5 0, 33 0, 50 53 S 83 106, 100 53 S 133 0, 150, 53" fill="none" stroke="#222" style="opacity:0.063333333333333;stroke-width:21px;" transform="translate(-25, 697.5)" /><path d="M0 53 C 17.5 0, 33 0, 50 53 S 83 106, 100 53 S 133 0, 150, 53" fill="none" stroke="#ddd" style="opacity:0.10666666666667;stroke-width:21px;" transform="translate(-25, -37.5)" /><path d="M0 53 C 17.5 0, 33 0, 50 53 S 83 106, 100 53 S 133 0, 150, 53" fill="none" stroke="#ddd" style="opacity:0.10666666666667;stroke-width:21px;" transform="translate(-25, 718.5)" /><path d="M0 53 C 17.5 0, 33 0, 50 53 S 83 106, 100 53 S 133 0, 150, 53" fill="none" stroke="#222" style="opacity:0.063333333333333;stroke-width:21px;" transform="translate(-25, -16.5)" /><path d="M0 53 C 17.5 0, 33 0, 50 53 S 83 106, 100 53 S 133 0, 150, 53" fill="none" stroke="#222" style="opacity:0.063333333333333;stroke-width:21px;" transform="translate(-25, 739.5)" /><path d="M0 53 C 17.5 0, 33 0, 50 53 S 83 106, 100 53 S 133 0, 150, 53" fill="none" stroke="#222" style="opacity:0.046;stroke-width:21px;" transform="translate(-25, 4.5)" /><path d="M0 53 C 17.5 0, 33 0, 50 53 S 83 106, 100 53 S 133 0, 150, 53" fill="none" stroke="#222" style="opacity:0.046;stroke-width:21px;" transform="translate(-25, 760.5)" /><path d="M0 53 C 17.5 0, 33 0, 50 53 S 83 106, 100 53 S 133 0, 150, 53" fill="none" stroke="#ddd" style="opacity:0.14133333333333;stroke-width:21px;" transform="translate(-25, 25.5)" /><path d="M0 53 C 17.5 0, 33 0, 50 53 S 83 106, 100 53 S 133 0, 150, 53" fill="none" stroke="#ddd" style="opacity:0.14133333333333;stroke-width:21px;" transform="translate(-25, 781.5)" /><path d="M0 53 C 17.5 0, 33 0, 50 53 S 83 106, 100 53 S 133 0, 150, 53" fill="none" stroke="#222" style="opacity:0.046;stroke-width:21px;" transform="translate(-25, 46.5)" /><path d="M0 53 C 17.5 0, 33 0, 50 53 S 83 106, 100 53 S 133 0, 150, 53" fill="none" stroke="#222" style="opacity:0.046;stroke-width:21px;" transform="translate(-25, 802.5)" /><path d="M0 53 C 17.5 0, 33 0, 50 53 S 83 106, 100 53 S 133 0, 150, 53" fill="none" stroke="#ddd" style="opacity:0.072;stroke-width:21px;" transform="translate(-25, 67.5)" /><path d="M0 53 C 17.5 0, 33 0, 50 53 S 83 106, 100 53 S 133 0, 150, 53" fill="none" stroke="#ddd" style="opacity:0.072;stroke-width:21px;" transform="translate(-25, 823.5)" /><path d="M0 53 C 17.5 0, 33 0, 50 53 S 83 106, 100 53 S 133 0, 150, 53" fill="none" stroke="#222" style="opacity:0.098;stroke-width:21px;" transform="translate(-25, 88.5)" /><path d="M0 53 C 17.5 0, 33 0, 50 53 S 83 106, 100 53 S 133 0, 150, 53" fill="none" stroke="#222" style="opacity:0.098;stroke-width:21px;" transform="translate(-25, 844.5)" /><path d="M0 53 C 17.5 0, 33 0, 50 53 S 83 106, 100 53 S 133 0, 150, 53" fill="none" stroke="#ddd" style="opacity:0.072;stroke-width:21px;" transform="translate(-25, 109.5)" /><path d="M0 53 C 17.5 0, 33 0, 50 53 S 83 106, 100 53 S 133 0, 150, 53" fill="none" stroke="#ddd" style="opacity:0.072;stroke-width:21px;" transform="translate(-25, 865.5)" /><path d="M0 53 C 17.5 0, 33 0, 50 53 S 83 106, 100 53 S 133 0, 150, 53" fill="none" stroke="#ddd" style="opacity:0.14133333333333;stroke-width:21px;" transform="translate(-25, 130.5)" /><path d="M0 53 C 17.5 0, 33 0, 50 53 S 83 106, 100 53 S 133 0, 150, 53" fill="none" stroke="#ddd" style="opacity:0.14133333333333;stroke-width:21px;" transform="translate(-25, 886.5)" /><path d="M0 53 C 17.5 0, 33 0, 50 53 S 83 106, 100 53 S 133 0, 150, 53" fill="none" stroke="#ddd" style="opacity:0.037333333333333;stroke-width:21px;" transform="translate(-25, 151.5)" /><path d="M0 53 C 17.5 0, 33 0, 50 53 S 83 106, 100 53 S 133 0, 150, 53" fill="none" stroke="#ddd" style="opacity:0.037333333333333;stroke-width:21px;" transform="translate(-25, 907.5)" /><path d="M0 53 C 17.5 0, 33 0, 50 53 S 83 106, 100 53 S 133 0, 150, 53" fill="none" stroke="#ddd" style="opacity:0.10666666666667;stroke-width:21px;" transform="translate(-25, 172.5)" /><path d="M0 53 C 17.5 0, 33 0, 50 53 S 83 106, 100 53 S 133 0, 150, 53" fill="none" stroke="#ddd" style="opacity:0.10666666666667;stroke-width:21px;" transform="translate(-25, 928.5)" /><path d="M0 53 C 17.5 0, 33 0, 50 53 S 83 106, 100 53 S 133 0, 150, 53" fill="none" stroke="#ddd" style="opacity:0.072;stroke-width:21px;" transform="translate(-25, 193.5)" /><path d="M0 53 C 17.5 0, 33 0, 50 53 S 83 106, 100 53 S 133 0, 150, 53" fill="none" stroke="#ddd" style="opacity:0.072;stroke-width:21px;" transform="translate(-25, 949.5)" /><path d="M0 53 C 17.5 0, 33 0, 50 53 S 83 106, 100 53 S 133 0, 150, 53" fill="none" stroke="#222" style="opacity:0.13266666666667;stroke-width:21px;" transform="translate(-25, 214.5)" /><path d="M0 53 C 17.5 0, 33 0, 50 53 S 83 106, 100 53 S 133 0, 150, 53" fill="none" stroke="#222" style="opacity:0.13266666666667;stroke-width:21px;" transform="translate(-25, 970.5)" /><path d="M0 53 C 17.5 0, 33 0, 50 53 S 83 106, 100 53 S 133 0, 150, 53" fill="none" stroke="#222" style="opacity:0.13266666666667;stroke-width:21px;" transform="translate(-25, 235.5)" /><path d="M0 53 C 17.5 0, 33 0, 50 53 S 83 106, 100 53 S 133 0, 150, 53" fill="none" stroke="#222" style="opacity:0.13266666666667;stroke-width:21px;" transform="translate(-25, 991.5)" /><path d="M0 53 C 17.5 0, 33 0, 50 53 S 83 106, 100 53 S 133 0, 150, 53" fill="none" stroke="#222" style="opacity:0.046;stroke-width:21px;" transform="translate(-25, 256.5)" /><path d="M0 53 C 17.5 0, 33 0, 50 53 S 83 106, 100 53 S 133 0, 150, 53" fill="none" stroke="#222" style="opacity:0.046;stroke-width:21px;" transform="translate(-25, 1012.5)" /><path d="M0 53 C 17.5 0, 33 0, 50 53 S 83 106, 100 53 S 133 0, 150, 53" fill="none" stroke="#222" style="opacity:0.080666666666667;stroke-width:21px;" transform="translate(-25, 277.5)" /><path d="M0 53 C 17.5 0, 33 0, 50 53 S 83 106, 100 53 S 133 0, 150, 53" fill="none" stroke="#222" style="opacity:0.080666666666667;stroke-width:21px;" transform="translate(-25, 1033.5)" /><path d="M0 53 C 17.5 0, 33 0, 50 53 S 83 106, 100 53 S 133 0, 150, 53" fill="none" stroke="#222" style="opacity:0.098;stroke-width:21px;" transform="translate(-25, 298.5)" /><path d="M0 53 C 17.5 0, 33 0, 50 53 S 83 106, 100 53 S 133 0, 150, 53" fill="none" stroke="#222" style="opacity:0.098;stroke-width:21px;" transform="translate(-25, 1054.5)" /><path d="M0 53 C 17.5 0, 33 0, 50 53 S 83 106, 100 53 S 133 0, 150, 53" fill="none" stroke="#ddd" style="opacity:0.072;stroke-width:21px;" transform="translate(-25, 319.5)" /><path d="M0 53 C 17.5 0, 33 0, 50 53 S 83 106, 100 53 S 133 0, 150, 53" fill="none" stroke="#ddd" style="opacity:0.072;stroke-width:21px;" transform="translate(-25, 1075.5)" /><path d="M0 53 C 17.5 0, 33 0, 50 53 S 83 106, 100 53 S 133 0, 150, 53" fill="none" stroke="#ddd" style="opacity:0.054666666666667;stroke-width:21px;" transform="translate(-25, 340.5)" /><path d="M0 53 C 17.5 0, 33 0, 50 53 S 83 106, 100 53 S 133 0, 150, 53" fill="none" stroke="#ddd" style="opacity:0.054666666666667;stroke-width:21px;" transform="translate(-25, 1096.5)" /><path d="M0 53 C 17.5 0, 33 0, 50 53 S 83 106, 100 53 S 133 0, 150, 53" fill="none" stroke="#222" style="opacity:0.15;stroke-width:21px;" transform="translate(-25, 361.5)" /><path d="M0 53 C 17.5 0, 33 0, 50 53 S 83 106, 100 53 S 133 0, 150, 53" fill="none" stroke="#222" style="opacity:0.15;stroke-width:21px;" transform="translate(-25, 1117.5)" /><path d="M0 53 C 17.5 0, 33 0, 50 53 S 83 106, 100 53 S 133 0, 150, 53" fill="none" stroke="#222" style="opacity:0.063333333333333;stroke-width:21px;" transform="translate(-25, 382.5)" /><path d="M0 53 C 17.5 0, 33 0, 50 53 S 83 106, 100 53 S 133 0, 150, 53" fill="none" stroke="#222" style="opacity:0.063333333333333;stroke-width:21px;" transform="translate(-25, 1138.5)" /><path d="M0 53 C 17.5 0, 33 0, 50 53 S 83 106, 100 53 S 133 0, 150, 53" fill="none" stroke="#222" style="opacity:0.080666666666667;stroke-width:21px;" transform="translate(-25, 403.5)" /><path d="M0 53 C 17.5 0, 33 0, 50 53 S 83 106, 100 53 S 133 0, 150, 53" fill="none" stroke="#222" style="opacity:0.080666666666667;stroke-width:21px;" transform="translate(-25, 1159.5)" /><path d="M0 53 C 17.5 0, 33 0, 50 53 S 83 106, 100 53 S 133 0, 150, 53" fill="none" stroke="#ddd" style="opacity:0.037333333333333;stroke-width:21px;" transform="translate(-25, 424.5)" /><path d="M0 53 C 17.5 0, 33 0, 50 53 S 83 106, 100 53 S 133 0, 150, 53" fill="none" stroke="#ddd" style="opacity:0.037333333333333;stroke-width:21px;" transform="translate(-25, 1180.5)" /><path d="M0 53 C 17.5 0, 33 0, 50 53 S 83 106, 100 53 S 133 0, 150, 53" fill="none" stroke="#222" style="opacity:0.028666666666667;stroke-width:21px;" transform="translate(-25, 445.5)" /><path d="M0 53 C 17.5 0, 33 0, 50 53 S 83 106, 100 53 S 133 0, 150, 53" fill="none" stroke="#222" style="opacity:0.028666666666667;stroke-width:21px;" transform="translate(-25, 1201.5)" /><path d="M0 53 C 17.5 0, 33 0, 50 53 S 83 106, 100 53 S 133 0, 150, 53" fill="none" stroke="#222" style="opacity:0.13266666666667;stroke-width:21px;" transform="translate(-25, 466.5)" /><path d="M0 53 C 17.5 0, 33 0, 50 53 S 83 106, 100 53 S 133 0, 150, 53" fill="none" stroke="#222" style="opacity:0.13266666666667;stroke-width:21px;" transform="translate(-25, 1222.5)" /><path d="M0 53 C 17.5 0, 33 0, 50 53 S 83 106, 100 53 S 133 0, 150, 53" fill="none" stroke="#222" style="opacity:0.046;stroke-width:21px;" transform="translate(-25, 487.5)" /><path d="M0 53 C 17.5 0, 33 0, 50 53 S 83 106, 100 53 S 133 0, 150, 53" fill="none" stroke="#222" style="opacity:0.046;stroke-width:21px;" transform="translate(-25, 1243.5)" /><path d="M0 53 C 17.5 0, 33 0, 50 53 S 83 106, 100 53 S 133 0, 150, 53" fill="none" stroke="#ddd" style="opacity:0.054666666666667;stroke-width:21px;" transform="translate(-25, 508.5)" /><path d="M0 53 C 17.5 0, 33 0, 50 53 S 83 106, 100 53 S 133 0, 150, 53" fill="none" stroke="#ddd" style="opacity:0.054666666666667;stroke-width:21px;" transform="translate(-25, 1264.5)" /><path d="M0 53 C 17.5 0, 33 0, 50 53 S 83 106, 100 53 S 133 0, 150, 53" fill="none" stroke="#222" style="opacity:0.028666666666667;stroke-width:21px;" transform="translate(-25, 529.5)" /><path d="M0 53 C 17.5 0, 33 0, 50 53 S 83 106, 100 53 S 133 0, 150, 53" fill="none" stroke="#222" style="opacity:0.028666666666667;stroke-width:21px;" transform="translate(-25, 1285.5)" /><path d="M0 53 C 17.5 0, 33 0, 50 53 S 83 106, 100 53 S 133 0, 150, 53" fill="none" stroke="#ddd" style="opacity:0.02;stroke-width:21px;" transform="translate(-25, 550.5)" /><path d="M0 53 C 17.5 0, 33 0, 50 53 S 83 106, 100 53 S 133 0, 150, 53" fill="none" stroke="#ddd" style="opacity:0.02;stroke-width:21px;" transform="translate(-25, 1306.5)" /><path d="M0 53 C 17.5 0, 33 0, 50 53 S 83 106, 100 53 S 133 0, 150, 53" fill="none" stroke="#222" style="opacity:0.028666666666667;stroke-width:21px;" transform="translate(-25, 571.5)" /><path d="M0 53 C 17.5 0, 33 0, 50 53 S 83 106, 100 53 S 133 0, 150, 53" fill="none" stroke="#222" style="opacity:0.028666666666667;stroke-width:21px;" transform="translate(-25, 1327.5)" /><path d="M0 53 C 17.5 0, 33 0, 50 53 S 83 106, 100 53 S 133 0, 150, 53" fill="none" stroke="#ddd" style="opacity:0.072;stroke-width:21px;" transform="translate(-25, 592.5)" /><path d="M0 53 C 17.5 0, 33 0, 50 53 S 83 106, 100 53 S 133 0, 150, 53" fill="none" stroke="#ddd" style="opacity:0.072;stroke-width:21px;" transform="translate(-25, 1348.5)" /><path d="M0 53 C 17.5 0, 33 0, 50 53 S 83 106, 100 53 S 133 0, 150, 53" fill="none" stroke="#ddd" style="opacity:0.089333333333333;stroke-width:21px;" transform="translate(-25, 613.5)" /><path d="M0 53 C 17.5 0, 33 0, 50 53 S 83 106, 100 53 S 133 0, 150, 53" fill="none" stroke="#ddd" style="opacity:0.089333333333333;stroke-width:21px;" transform="translate(-25, 1369.5)" /><path d="M0 53 C 17.5 0, 33 0, 50 53 S 83 106, 100 53 S 133 0, 150, 53" fill="none" stroke="#222" style="opacity:0.098;stroke-width:21px;" transform="translate(-25, 634.5)" /><path d="M0 53 C 17.5 0, 33 0, 50 53 S 83 106, 100 53 S 133 0, 150, 53" fill="none" stroke="#222" style="opacity:0.098;stroke-width:21px;" transform="translate(-25, 1390.5)" /><path d="M0 53 C 17.5 0, 33 0, 50 53 S 83 106, 100 53 S 133 0, 150, 53" fill="none" stroke="#ddd" style="opacity:0.14133333333333;stroke-width:21px;" transform="translate(-25, 655.5)" /><path d="M0 53 C 17.5 0, 33 0, 50 53 S 83 106, 100 53 S 133 0, 150, 53" fill="none" stroke="#ddd" style="opacity:0.14133333333333;stroke-width:21px;" transform="translate(-25, 1411.5)" /></svg>