<svg xmlns:xlink="http://www.w3.org/1999/xlink" xmlns="http://www.w3.org/2000/svg" width="20" height="18" viewBox="0 0 20 18" fill="none">
    <mask id="kh1qu4an8a" style="mask-type:alpha" maskUnits="userSpaceOnUse" x="0" y="0" width="20" height="18">
        <path fill="#0014DC" d="M0 0h20v18H0z"/>
    </mask>
    <g mask="url(#kh1qu4an8a)">
        <path d="M5.287 9.587H7.24v8.123c0 .16.129.29.288.29h3.311c.159 0 .287-.13.287-.29V9.625h2.246c.146 0 .268-.11.285-.257l.341-2.99a.292.292 0 0 0-.07-.227.286.286 0 0 0-.215-.097h-2.586V4.179c0-.565.3-.851.895-.851h1.69c.16 0 .288-.13.288-.29V.291c0-.16-.129-.29-.287-.29h-2.33c-.017 0-.053-.002-.107-.002-.405 0-1.81.08-2.92 1.112-1.23 1.143-1.06 2.512-1.018 2.75v2.192h-2.05a.289.289 0 0 0-.288.29v2.952c0 .16.129.29.287.29z" fill="#fff"/>
    </g>
</svg>