<svg xmlns:xlink="http://www.w3.org/1999/xlink" xmlns="http://www.w3.org/2000/svg" width="26" height="25" viewBox="0 0 26 25" fill="none">
    <path d="M13.12 2.259h5.12c1.205 0 1.808.301 2.26.452.602.301 1.054.452 1.506.903.451.452.753.904.903 1.506.15.452.302 1.055.452 2.26v10.24c0 1.205-.301 1.808-.452 2.26-.3.602-.451 1.054-.903 1.506-.452.451-.904.753-1.506.903-.452.15-1.055.301-2.26.452H8c-1.205 0-1.808-.301-2.26-.452-.602-.301-1.054-.452-1.505-.904-.452-.451-.753-.903-.904-1.506-.15-.451-.301-1.054-.452-2.259V7.38c0-1.205.301-1.808.452-2.26.301-.602.452-1.054.904-1.506.451-.451.903-.753 1.506-.903.451-.15 1.054-.301 2.259-.452h5.12zm0-2.259H8C6.644 0 5.74.301 4.988.602a6.576 6.576 0 0 0-2.26 1.506c-.752.753-1.054 1.356-1.505 2.26C.92 5.12.77 6.023.62 7.38v10.24c0 1.356.301 2.26.603 3.012a6.576 6.576 0 0 0 1.506 2.26c.753.753 1.355 1.054 2.259 1.506.753.3 1.656.451 3.012.602h10.24c1.356 0 2.26-.301 3.013-.602a6.575 6.575 0 0 0 2.259-1.506c.753-.753 1.054-1.356 1.506-2.26.3-.753.451-1.656.602-3.012V7.38c0-1.356-.301-2.26-.602-3.013a6.576 6.576 0 0 0-1.506-2.259c-.753-.753-1.356-1.054-2.26-1.506C20.5.302 19.597.151 18.242 0h-5.12z" fill="#fff"/>
    <path d="M13.12 6.024A6.428 6.428 0 0 0 6.644 12.5a6.428 6.428 0 0 0 6.476 6.476 6.428 6.428 0 0 0 6.476-6.476 6.428 6.428 0 0 0-6.476-6.476zm0 10.693c-2.259 0-4.217-1.807-4.217-4.217 0-2.259 1.807-4.217 4.217-4.217 2.26 0 4.217 1.807 4.217 4.217 0 2.259-1.958 4.217-4.217 4.217zM19.747 7.38a1.506 1.506 0 1 0 0-3.012 1.506 1.506 0 0 0 0 3.012z" fill="#fff"/>
</svg>