<?xml version="1.0" encoding="iso-8859-1"?>
<!-- Generator: Adobe Illustrator 19.0.0, SVG Export Plug-In . SVG Version: 6.00 Build 0)  -->
<svg version="1.1" id="Layer_1" xmlns="http://www.w3.org/2000/svg" xmlns:xlink="http://www.w3.org/1999/xlink" x="0px" y="0px"
	 viewBox="0 0 392.598 392.598" style="enable-background:new 0 0 392.598 392.598;" xml:space="preserve">
<rect x="65.697" y="21.786" style="fill:#FFFFFF;" width="261.042" height="163.556"/>
<path style="fill:#194F82;" d="M337.665,0H54.901c-6.012,0-10.925,4.848-10.925,10.925v185.341c0,6.012,4.848,10.925,10.925,10.925
	H337.73c6.012,0,10.925-4.848,10.925-10.925V10.861C348.59,4.848,343.742,0,337.665,0z M326.804,185.341H65.697V21.786H326.74
	v163.556H326.804z"/>
<path style="fill:#FFC10D;" d="M87.548,161.939V45.123c0-0.84,0.711-1.552,1.552-1.552h214.368c0.84,0,1.552,0.711,1.552,1.552
	v116.816c0,0.84-0.711,1.552-1.552,1.552H89.099C88.194,163.491,87.548,162.78,87.548,161.939z"/>
<g>
	<path style="fill:#194F82;" d="M278.707,156.38h-82.489c-6.012,0-10.925-4.848-10.925-10.925c0-6.012,4.848-10.925,10.925-10.925
		h82.554c6.012,0,10.925,4.848,10.925,10.925C289.633,151.531,284.784,156.38,278.707,156.38z"/>
	<path style="fill:#194F82;" d="M278.707,114.424H113.665c-6.012,0-10.925-4.848-10.925-10.925c0-6.012,4.848-10.925,10.925-10.925
		h165.042c6.012,0,10.925,4.848,10.925,10.925C289.633,109.576,284.784,114.424,278.707,114.424z"/>
	<path style="fill:#194F82;" d="M278.707,72.469H113.665c-6.012,0-10.925-4.848-10.925-10.925c0-6.012,4.848-10.925,10.925-10.925
		h165.042c6.012,0,10.925,4.848,10.925,10.925S284.784,72.469,278.707,72.469z"/>
</g>
<path style="fill:#FFFFFF;" d="M62.013,293.883c6.335,0,11.442-5.107,11.442-11.442c0-6.335-5.107-11.442-11.442-11.442
	S50.57,276.105,50.57,282.44C50.57,288.776,55.742,293.883,62.013,293.883z"/>
<path style="fill:#56ACE0;" d="M62.077,341.398c-18.36,0-34.004,12.412-38.723,29.35h77.511
	C95.952,353.81,80.437,341.398,62.077,341.398z"/>
<path style="fill:#FFC10D;" d="M196.219,293.883c6.335,0,11.442-5.107,11.442-11.442c0-6.335-5.107-11.442-11.442-11.442
	c-6.335,0-11.442,5.107-11.442,11.442C184.776,288.776,189.948,293.883,196.219,293.883z"/>
<g>
	<path style="fill:#FFFFFF;" d="M196.283,341.398c-18.36,0-34.004,12.412-38.723,29.35h77.511
		C230.223,353.81,214.643,341.398,196.283,341.398z"/>
	<path style="fill:#FFFFFF;" d="M330.425,293.883c6.335,0,11.442-5.107,11.442-11.442c0-6.335-5.107-11.442-11.442-11.442
		s-11.442,5.107-11.442,11.442C318.982,288.776,324.154,293.883,330.425,293.883z"/>
</g>
<path style="fill:#56ACE0;" d="M330.425,341.398c-18.36,0-34.004,12.412-38.723,29.35h77.511
	C364.429,353.81,348.913,341.398,330.425,341.398z"/>
<g>
	<path style="fill:#194F82;" d="M392.485,379.927c-0.905-33.487-28.38-60.38-62.061-60.38c-34.263,0-62.061,27.798-62.061,62.061
		c0,6.012,4.848,10.925,10.925,10.925h102.335h0.065C387.766,392.533,393.39,387.491,392.485,379.927z M291.701,370.747
		c4.784-16.937,20.299-29.35,38.723-29.35c18.36,0,34.004,12.412,38.723,29.35H291.701z"/>
	<path style="fill:#194F82;" d="M196.283,319.612c-34.263,0-62.061,27.798-62.061,62.061c0,6.012,4.848,10.925,10.925,10.925
		h102.335h0.065c6.012,0,11.636-5.042,10.731-12.606C257.374,346.505,229.899,319.612,196.283,319.612z M157.495,370.747
		c4.784-16.937,20.299-29.35,38.723-29.35s34.004,12.412,38.723,29.35H157.495z"/>
	<path style="fill:#194F82;" d="M62.077,319.612c-34.263,0-62.061,27.798-62.061,62.061c0,6.012,4.848,10.925,10.925,10.925h102.335
		h0.065c6.012,0,11.636-5.042,10.731-12.606C123.168,346.505,95.693,319.612,62.077,319.612z M23.289,370.747
		c4.784-16.937,20.299-29.35,38.723-29.35s34.004,12.412,38.723,29.35H23.289z"/>
	<path style="fill:#194F82;" d="M62.013,315.669c18.295,0,33.228-14.933,33.228-33.228s-14.933-33.228-33.228-33.228
		s-33.228,14.933-33.228,33.228S43.653,315.669,62.013,315.669z M62.013,270.998c6.335,0,11.442,5.107,11.442,11.442
		c0,6.335-5.107,11.442-11.442,11.442S50.57,288.776,50.57,282.44C50.57,276.105,55.742,270.998,62.013,270.998z"/>
	<path style="fill:#194F82;" d="M196.219,315.669c18.295,0,33.228-14.933,33.228-33.228s-14.933-33.228-33.228-33.228
		s-33.228,14.933-33.228,33.228S177.924,315.669,196.219,315.669z M196.219,270.998c6.335,0,11.442,5.107,11.442,11.442
		c0,6.335-5.107,11.442-11.442,11.442c-6.335,0-11.442-5.107-11.442-11.442C184.776,276.105,189.948,270.998,196.219,270.998z"/>
	<path style="fill:#194F82;" d="M330.425,315.669c18.295,0,33.228-14.933,33.228-33.228s-14.933-33.228-33.228-33.228
		c-18.295,0-33.228,14.933-33.228,33.228S312.13,315.669,330.425,315.669z M330.425,270.998c6.335,0,11.442,5.107,11.442,11.442
		c0,6.335-5.107,11.442-11.442,11.442s-11.442-5.107-11.442-11.442C318.982,276.105,324.154,270.998,330.425,270.998z"/>
</g>
<g>
</g>
<g>
</g>
<g>
</g>
<g>
</g>
<g>
</g>
<g>
</g>
<g>
</g>
<g>
</g>
<g>
</g>
<g>
</g>
<g>
</g>
<g>
</g>
<g>
</g>
<g>
</g>
<g>
</g>
</svg>
