<svg xmlns:xlink="http://www.w3.org/1999/xlink" xmlns="http://www.w3.org/2000/svg" width="25" height="25" viewBox="0 0 25 25" fill="none">
    <path d="M5.625 25H.312V8.281h5.313V25zM2.969 5.937C1.25 5.938 0 4.688 0 2.97 0 1.25 1.406 0 2.969 0c1.719 0 2.969 1.25 2.969 2.969 0 1.719-1.25 2.969-2.97 2.969zM25 25h-5.313v-9.063c0-2.656-1.093-3.437-2.656-3.437-1.562 0-3.125 1.25-3.125 3.594V25H8.594V8.281h5v2.344c.469-1.094 2.344-2.813 5-2.813 2.968 0 6.093 1.72 6.093 6.875V25H25z" fill="#fff"/>
</svg>