<?xml version="1.0" encoding="utf-8"?>
<!-- Generator: Adobe Illustrator 26.5.0, SVG Export Plug-In . SVG Version: 6.00 Build 0)  -->
<svg version="1.1" id="Logos" xmlns="http://www.w3.org/2000/svg" xmlns:xlink="http://www.w3.org/1999/xlink" x="0px" y="0px"
	 viewBox="0 0 1350 810" style="enable-background:new 0 0 1350 810;" xml:space="preserve">
<style type="text/css">
	.st0{fill:#0014DC;}
</style>
<path class="st0" d="M637.2,621C378.8,414.1,271.1,148.5,0,148.5V621H637.2z"/>
<path class="st0" d="M1186.7,141.4c-52.8,0-99.9,22.9-127.3,56.6V0h-63.8v472.5h52.5l6.7-49.7c18.5,24.8,56.3,56.8,128.7,56.8
	c97.4,0,166.4-69.6,166.4-168.3S1283.8,141.4,1186.7,141.4L1186.7,141.4z M1169.2,420.4c-70.3,0-112.2-41.8-112.2-109.8
	s43-109.8,112.2-109.8s112.2,41.8,112.2,109.8S1238.4,420.4,1169.2,420.4z"/>
<rect x="884.6" class="st0" width="63.8" height="472.5"/>
<path class="st0" d="M704.3,424.5c-46.5,0-95.4-22.7-121.6-55.3l-43,40.9c42,47.5,96.8,69.4,161.9,69.4
	c89.2,0,145.3-39.8,145.3-106.8c0-139.4-242.1-52.2-242.1-130.7c0-28.7,33.5-45,85.7-45c46.5,0,80.1,15.1,101,36.6l43-40.9
	c-28.5-30.6-82.1-51.3-142.4-51.3c-90.2,0-149.5,42.7-149.5,110.2c0,135.5,241.1,49.3,241.1,128.3
	C783.6,407.7,752.2,424.5,704.3,424.5L704.3,424.5z"/>
<path class="st0" d="M1342.9,573.7H653.4C795.7,689.9,1014.3,810,1342.9,810V573.7z"/>
</svg>
