<svg xmlns:xlink="http://www.w3.org/1999/xlink" xmlns="http://www.w3.org/2000/svg" width="25" height="20" viewBox="0 0 25 20" fill="none">
    <path d="M2.094 19.643c-.562 0-1.052-.201-1.468-.603C.208 18.64 0 18.167 0 17.624V2.376C0 1.834.208 1.362.625.96A2.047 2.047 0 0 1 2.095.358h20.813c.562 0 1.052.2 1.468.602.417.402.625.874.625 1.416v15.248c0 .543-.208 1.015-.625 1.416a2.047 2.047 0 0 1-1.468.603H2.094zm10.406-8.89 10.407-6.478V2.376L12.5 8.765 2.094 2.376v1.899L12.5 10.754z" fill="#0014DC"/>
</svg>