<svg xmlns:xlink="http://www.w3.org/1999/xlink" xmlns="http://www.w3.org/2000/svg" width="25" height="19" viewBox="0 0 25 19" fill="none">
    <path d="M2.094 18.964a2.067 2.067 0 0 1-1.468-.591C.208 17.979 0 17.515 0 16.983V2.017c0-.532.208-.995.625-1.39a2.067 2.067 0 0 1 1.469-.59h20.813c.562 0 1.052.196 1.468.59.417.395.625.858.625 1.39v14.966c0 .532-.208.996-.625 1.39a2.067 2.067 0 0 1-1.468.591H2.094zM12.5 10.24l10.407-6.36V2.018L12.5 8.287 2.094 2.018v1.864L12.5 10.24z" fill="#fff"/>
</svg>