<svg xmlns:xlink="http://www.w3.org/1999/xlink" xmlns="http://www.w3.org/2000/svg" width="24" height="23" viewBox="0 0 24 23" fill="none">
    <path d="m22.133 22.857-8.4-7.95a8.083 8.083 0 0 1-2.3 1.199 8.54 8.54 0 0 1-2.766.442c-2.423 0-4.472-.794-6.15-2.382S0 10.638 0 8.346c0-2.293.84-4.234 2.517-5.822C4.195.937 6.244.143 8.667.143c2.422 0 4.472.794 6.15 2.381 1.678 1.588 2.516 3.529 2.516 5.821A7.412 7.412 0 0 1 15.6 13.14l8.4 7.95-1.867 1.767zM8.667 14.024c1.666 0 3.083-.552 4.25-1.656 1.167-1.104 1.75-2.445 1.75-4.023 0-1.577-.583-2.918-1.75-4.023-1.167-1.103-2.584-1.655-4.25-1.655-1.667 0-3.084.552-4.251 1.655-1.166 1.105-1.75 2.446-1.75 4.023 0 1.578.584 2.919 1.75 4.023 1.167 1.104 2.584 1.656 4.25 1.656z" fill="#0014DC"/>
</svg>