<svg xmlns:xlink="http://www.w3.org/1999/xlink" xmlns="http://www.w3.org/2000/svg" width="20" height="22" viewBox="0 0 20 22" fill="none">
    <path d="M16.176 21.575c-.934 0-1.738-.337-2.413-1.012-.675-.675-1.012-1.48-1.012-2.413 0-.117.012-.262.037-.438.025-.174.063-.345.113-.512l-6.65-3.875c-.3.333-.663.6-1.088.8-.425.2-.862.3-1.312.3-.95 0-1.759-.338-2.425-1.013-.667-.675-1-1.479-1-2.412 0-.95.333-1.758 1-2.425.666-.667 1.475-1 2.425-1 .45 0 .879.088 1.287.263.409.175.78.429 1.113.762l6.65-3.825a2.212 2.212 0 0 1-.113-.462 3.318 3.318 0 0 1-.037-.463c0-.933.337-1.737 1.012-2.412.675-.675 1.48-1.013 2.413-1.013.95 0 1.758.338 2.425 1.013.666.675 1 1.479 1 2.412 0 .933-.334 1.738-1 2.413a3.282 3.282 0 0 1-2.425 1.012c-.467 0-.904-.067-1.313-.2a2.259 2.259 0 0 1-1.037-.7L7.15 10c.05.15.083.325.1.525a3.665 3.665 0 0 1 0 .875c-.017.15-.05.308-.1.475l6.675 3.725c.283-.283.62-.5 1.012-.65a3.72 3.72 0 0 1 1.338-.225c.95 0 1.758.338 2.425 1.013.666.675 1 1.479 1 2.412 0 .933-.338 1.738-1.013 2.413-.675.675-1.479 1.012-2.412 1.012z" fill="#6C6969"/>
</svg>