<?xml version="1.0" standalone="no"?>
<!DOCTYPE svg PUBLIC "-//W3C//DTD SVG 20010904//EN"
 "http://www.w3.org/TR/2001/REC-SVG-20010904/DTD/svg10.dtd">
<svg version="1.0" xmlns="http://www.w3.org/2000/svg"
 width="512.000000pt" height="512.000000pt" viewBox="0 0 512.000000 512.000000"
 preserveAspectRatio="xMidYMid meet">

<g transform="translate(0.000000,512.000000) scale(0.100000,-0.100000)"
fill="#000000" stroke="none">
<path d="M2505 4935 c-25 -24 -25 -26 -25 -215 0 -189 0 -191 25 -215 15 -16
36 -25 55 -25 19 0 40 9 55 25 25 24 25 26 25 215 0 189 0 191 -25 215 -15 16
-36 25 -55 25 -19 0 -40 -9 -55 -25z"/>
<path d="M1926 4889 c-19 -15 -26 -30 -26 -56 0 -40 84 -326 106 -360 30 -48
112 -37 134 18 11 25 6 49 -39 201 -40 132 -58 178 -77 196 -31 28 -64 28 -98
1z"/>
<path d="M3096 4888 c-19 -18 -37 -64 -77 -196 -45 -151 -50 -176 -39 -201 20
-48 80 -65 119 -33 26 20 121 315 121 374 0 67 -74 101 -124 56z"/>
<path d="M1313 4724 c-20 -20 -24 -32 -20 -57 6 -38 161 -326 185 -344 25 -20
79 -16 102 7 36 36 26 76 -61 236 -44 82 -90 157 -101 167 -30 25 -74 22 -105
-9z"/>
<path d="M3702 4733 c-23 -20 -180 -305 -183 -331 -3 -36 2 -53 21 -72 23 -23
77 -27 102 -7 24 18 179 306 185 344 11 63 -75 109 -125 66z"/>
<path d="M700 4440 c-27 -27 -26 -78 3 -116 76 -101 213 -254 236 -264 33 -13
75 0 90 29 27 50 15 75 -100 213 -61 73 -118 139 -127 146 -24 19 -79 15 -102
-8z"/>
<path d="M4318 4448 c-9 -7 -66 -73 -127 -146 -112 -134 -124 -157 -105 -207
10 -26 62 -44 94 -33 17 5 75 66 146 150 101 121 118 146 118 176 0 24 -7 40
-23 53 -27 22 -80 25 -103 7z"/>
<path d="M2323 4150 c-257 -25 -522 -86 -753 -172 -200 -74 -498 -227 -567
-291 -39 -35 -29 -98 19 -123 36 -18 53 -14 144 41 149 90 508 255 556 255 6
0 -29 -42 -78 -92 -143 -148 -237 -303 -299 -493 -152 -464 -26 -971 327
-1311 l88 -85 0 -59 c0 -49 -3 -60 -16 -60 -108 0 -224 -125 -224 -240 0 -92
80 -202 166 -228 31 -9 249 -12 873 -12 l832 0 24 -25 c33 -32 33 -78 0 -110
l-24 -25 -831 0 -831 0 -24 -25 c-33 -32 -33 -78 0 -110 13 -14 30 -25 38 -25
10 0 16 -19 20 -67 24 -249 155 -467 364 -603 136 -89 259 -125 433 -125 174
0 297 36 433 125 209 136 340 354 364 603 4 50 10 67 21 67 45 0 101 28 147
75 81 80 96 170 47 269 l-29 56 29 56 c49 99 34 189 -47 269 -47 47 -102 75
-149 75 -13 0 -16 11 -16 58 l0 59 103 104 c188 188 299 394 352 649 23 107
29 279 16 390 -18 144 -26 168 -66 187 -41 20 -74 9 -101 -32 -14 -22 -15 -33
-5 -83 31 -150 24 -338 -19 -509 -46 -179 -193 -416 -332 -533 -111 -93 -108
-88 -108 -196 l0 -94 -160 0 -160 0 0 283 0 284 56 38 c155 107 263 315 264
508 0 67 -25 199 -46 239 -15 28 -52 45 -89 39 -11 -2 -41 -25 -66 -51 -73
-77 -161 -81 -230 -11 -68 68 -65 156 7 226 52 51 65 80 52 118 -12 34 -50 54
-136 73 -450 95 -855 -312 -756 -759 33 -149 124 -291 240 -375 l64 -47 0
-282 0 -283 -160 0 -160 0 0 97 0 96 -57 51 c-198 174 -313 348 -377 569 -151
521 103 1082 596 1317 519 247 1141 59 1438 -435 49 -82 63 -95 105 -95 39 0
75 36 75 74 0 59 -110 221 -236 348 l-89 89 70 -26 c405 -152 760 -374 1059
-664 119 -117 266 -282 266 -301 0 -20 -151 -189 -269 -302 -235 -225 -476
-395 -772 -544 -115 -57 -137 -80 -125 -128 8 -31 31 -54 62 -62 65 -17 471
222 730 428 236 188 564 542 564 607 0 19 -17 50 -51 92 -450 564 -1049 954
-1712 1114 -251 61 -628 89 -874 65z m272 -807 c-47 -111 -45 -197 6 -294 36
-67 68 -98 143 -137 43 -22 64 -26 136 -26 61 0 94 4 117 17 18 9 34 17 38 17
11 0 5 -98 -10 -155 -33 -124 -131 -252 -235 -305 -72 -37 -70 -28 -70 -382
l0 -318 -160 0 -160 0 0 318 c0 356 2 345 -73 384 -23 11 -69 48 -103 82 -189
190 -190 482 -1 670 93 94 206 144 326 145 47 1 52 -1 46 -16z m820 -1768 c16
-15 25 -36 25 -55 0 -19 -9 -40 -25 -55 l-24 -25 -831 0 -831 0 -24 25 c-16
15 -25 36 -25 55 0 19 9 40 25 55 l24 25 831 0 831 0 24 -25z m-219 -682 c-15
-142 -80 -276 -186 -383 -76 -75 -148 -121 -252 -158 -63 -22 -89 -26 -193
-27 -97 0 -133 4 -190 22 -163 52 -309 175 -383 323 -41 82 -71 191 -72 258
l0 32 641 0 642 0 -7 -67z"/>
<path d="M4714 3900 c-92 -77 -144 -128 -148 -145 -7 -29 15 -79 39 -89 48
-18 71 -6 202 104 72 60 138 119 147 132 36 51 1 118 -62 118 -33 0 -54 -14
-178 -120z"/>
<path d="M185 3975 c-27 -26 -33 -71 -12 -98 6 -9 70 -61 142 -116 110 -86
136 -101 167 -101 58 0 95 59 68 110 -5 10 -71 66 -146 124 -150 116 -175 126
-219 81z"/>
<path d="M775 3528 c-11 -6 -60 -45 -110 -87 -209 -176 -505 -504 -505 -560 0
-17 17 -49 46 -87 278 -358 679 -685 1100 -896 92 -46 128 -59 147 -54 32 8
55 30 63 62 12 48 -10 71 -125 128 -296 149 -537 319 -772 544 -119 114 -269
282 -269 302 0 34 262 306 443 459 92 78 97 85 97 121 0 62 -62 98 -115 68z"/>
<path d="M450 2213 c-17 -7 -220 -162 -262 -202 -46 -41 -35 -107 21 -131 40
-16 57 -7 214 114 95 74 127 105 132 126 13 60 -48 114 -105 93z"/>
<path d="M4603 2208 c-29 -14 -47 -60 -37 -92 5 -15 70 -77 152 -146 158 -132
181 -142 227 -95 30 29 33 74 8 103 -10 12 -78 71 -151 131 -134 112 -154 121
-199 99z"/>
<path d="M928 1809 c-25 -14 -238 -268 -249 -297 -19 -50 40 -112 94 -98 18 4
66 53 147 149 106 125 120 146 120 179 0 58 -63 96 -112 67z"/>
<path d="M4106 1799 c-20 -15 -26 -29 -26 -57 0 -33 14 -54 120 -179 81 -96
129 -145 147 -149 54 -14 113 48 94 98 -12 31 -225 284 -251 298 -29 15 -55
12 -84 -11z"/>
</g>
</svg>
