<svg xmlns:xlink="http://www.w3.org/1999/xlink" xmlns="http://www.w3.org/2000/svg" width="34" height="24" viewBox="0 0 34 24" fill="none">
    <path d="M32.78 4.038c-.42-1.47-1.471-2.521-2.942-2.942C27.316.466 16.6.466 16.6.466s-10.506 0-13.238.63C1.892 1.516.84 2.567.42 4.038 0 6.77 0 12.233 0 12.233s0 5.463.63 8.195c.42 1.47 1.471 2.521 2.942 2.942C6.094 24 16.81 24 16.81 24s10.506 0 13.238-.63c1.47-.42 2.521-1.471 2.942-2.942.63-2.732.63-8.195.63-8.195s0-5.463-.84-8.195zM13.447 17.276V7.19l8.825 5.043-8.825 5.043z" fill="#fff"/>
</svg>